<svg width="84" height="109" viewBox="0 0 84 109" fill="none" xmlns="http://www.w3.org/2000/svg">
<g filter="url(#filter0_d_139_1436)">
<path d="M76.8926 102H8.90804V82.6314L39.5505 49.8652L41.8273 47.3404C43.5255 45.6634 44.7758 44.3366 45.5969 43.3598C47.2018 41.4985 48.0229 39.7294 48.0229 38.0524C48.0229 36.4675 47.4818 35.1775 46.418 34.2008C45.3357 33.2241 43.7681 32.7449 41.7153 32.7449C36.6953 32.7449 32.9816 35.8778 30.5556 42.162L6.89258 29.4277C10.0277 22.1668 14.6185 16.6198 20.6649 12.7682C26.7113 8.91659 33.5788 7 41.2861 7C50.4303 7 58.3055 9.61688 64.9304 14.8322C71.5553 20.0475 74.8771 27.1794 74.8771 36.1911C74.8771 41.8487 73.6268 46.7139 71.1074 50.7866C68.6814 54.8594 64.8371 59.8535 59.5559 65.7876L50.0197 76.2735H76.8926V102Z" stroke="url(#paint0_linear_139_1436)" shape-rendering="crispEdges"/>
</g>
<defs>
<filter id="filter0_d_139_1436" x="0.251953" y="0.5" width="83.1406" height="108" filterUnits="userSpaceOnUse" color-interpolation-filters="sRGB">
<feFlood flood-opacity="0" result="BackgroundImageFix"/>
<feColorMatrix in="SourceAlpha" type="matrix" values="0 0 0 0 0 0 0 0 0 0 0 0 0 0 0 0 0 0 127 0" result="hardAlpha"/>
<feOffset/>
<feGaussianBlur stdDeviation="3"/>
<feComposite in2="hardAlpha" operator="out"/>
<feColorMatrix type="matrix" values="0 0 0 0 0.219608 0 0 0 0 0.819608 0 0 0 0 0.737255 0 0 0 1 0"/>
<feBlend mode="normal" in2="BackgroundImageFix" result="effect1_dropShadow_139_1436"/>
<feBlend mode="normal" in="SourceGraphic" in2="effect1_dropShadow_139_1436" result="shape"/>
</filter>
<linearGradient id="paint0_linear_139_1436" x1="41.8926" y1="7" x2="41.8926" y2="102" gradientUnits="userSpaceOnUse">
<stop stop-color="#38D1BC"/>
<stop offset="1" stop-color="#119CD3"/>
</linearGradient>
</defs>
</svg>
