<svg width="33" height="31" viewBox="0 0 33 31" fill="none" xmlns="http://www.w3.org/2000/svg">
<path fill-rule="evenodd" clip-rule="evenodd" d="M0.474609 15.6671C0.474609 7.23551 7.64179 0.400391 16.4829 0.400391C25.3241 0.400391 32.4913 7.23551 32.4913 15.6671C32.4913 24.0986 25.3241 30.9337 16.4829 30.9337C7.64179 30.9337 0.474609 24.0986 0.474609 15.6671ZM17.3195 20.6773C17.3195 20.6773 17.6277 20.6452 17.7855 20.4865C17.93 20.3411 17.925 20.0667 17.925 20.0667C17.925 20.0667 17.9058 18.7853 18.5414 18.5961C19.1677 18.41 19.972 19.8353 20.8255 20.3833C21.4703 20.7977 21.9597 20.707 21.9597 20.707L24.2405 20.6773C24.2405 20.6773 25.4332 20.6085 24.8677 19.7305C24.821 19.6586 24.5379 19.0808 23.1724 17.894C21.7417 16.6517 21.9338 16.8526 23.6559 14.7034C24.7049 13.3947 25.1241 12.5957 24.993 12.254C24.8686 11.9272 24.0969 12.014 24.0969 12.014L21.5296 12.0288C21.5296 12.0288 21.3392 12.0046 21.198 12.0836C21.0602 12.161 20.9709 12.3416 20.9709 12.3416C20.9709 12.3416 20.565 13.354 20.0229 14.2156C18.8796 16.0325 18.4228 16.1287 18.2357 16.0161C17.8006 15.7526 17.9091 14.9591 17.9091 14.3954C17.9091 12.634 18.1948 11.8998 17.3538 11.7099C17.0748 11.6465 16.8694 11.6051 16.1553 11.5981C15.2391 11.5895 14.4641 11.6012 14.0248 11.8021C13.7325 11.9358 13.507 12.2345 13.6448 12.2517C13.8143 12.2728 14.1985 12.3486 14.4023 12.6082C14.6654 12.9436 14.6562 13.6957 14.6562 13.6957C14.6562 13.6957 14.8073 15.769 14.3029 16.0263C13.9571 16.203 13.4828 15.8425 12.463 14.1937C11.941 13.3493 11.5468 12.4158 11.5468 12.4158C11.5468 12.4158 11.4708 12.2415 11.3347 12.1477C11.1702 12.0343 10.9405 11.9991 10.9405 11.9991L8.50099 12.014C8.50099 12.014 8.13435 12.0234 7.99989 12.1727C7.88046 12.3048 7.9907 12.5792 7.9907 12.5792C7.9907 12.5792 9.90073 16.7627 12.0638 18.8713C14.0473 20.8039 16.2989 20.6773 16.2989 20.6773H17.3195Z" fill="white"/>
</svg>
