<svg width="319" height="48" viewBox="0 0 319 48" fill="none" xmlns="http://www.w3.org/2000/svg">
<path fill-rule="evenodd" clip-rule="evenodd" d="M58.9702 12.2271V25.8466H45.5119V13.9791C45.5119 13.0114 44.7258 12.2271 43.7563 12.2271H39.2139V44.6827C39.2139 45.6505 39.9996 46.4351 40.9695 46.4351H45.5119V31.3393H58.9702V44.6827C58.9702 45.6505 59.7559 46.4351 60.7258 46.4351H65.2681V13.9791C65.2681 13.0114 64.4822 12.2271 63.5123 12.2271H58.9702Z" fill="white"/>
<path fill-rule="evenodd" clip-rule="evenodd" d="M85.3884 20.292V36.5023C85.3884 37.9752 84.6359 39.3716 83.3582 40.1084C79.7919 42.1652 76.1014 39.5959 76.1014 36.2084V22.044C76.1014 21.0764 75.3154 20.292 74.3458 20.292H69.7852V36.7859C69.7852 42.0932 74.1354 46.4352 79.4524 46.4352H82.0374C87.3546 46.4352 91.7046 42.0932 91.7046 36.7859V22.044C91.7046 21.0764 90.9189 20.292 89.9495 20.292H85.3884Z" fill="white"/>
<path fill-rule="evenodd" clip-rule="evenodd" d="M155.441 46.4351H159.983V23.4795C159.983 22.5115 159.197 21.7271 158.228 21.7271H153.686V44.6827C153.686 45.6507 154.471 46.4351 155.441 46.4351Z" fill="#2483FF"/>
<path fill-rule="evenodd" clip-rule="evenodd" d="M156.835 19.2395C158.776 19.2395 160.35 17.6687 160.35 15.7312C160.35 13.7936 158.776 12.2231 156.835 12.2231C154.894 12.2231 153.32 13.7936 153.32 15.7312C153.32 17.6687 154.894 19.2395 156.835 19.2395Z" fill="#2483FF"/>
<path fill-rule="evenodd" clip-rule="evenodd" d="M113.868 35.5808C113.868 38.6995 111.312 40.7755 108.187 40.7755C105.063 40.7755 102.506 38.6995 102.506 35.5808V31.1303C102.506 28.0114 105.063 25.9354 108.187 25.9354C111.312 25.9354 113.868 28.0114 113.868 31.1303V35.5808ZM108.187 20.2759C101.581 20.2759 96.1758 24.9926 96.1758 31.5863V35.1527C96.1758 41.7464 101.581 46.4351 108.187 46.4351C114.793 46.4351 120.199 41.7464 120.199 35.1527V31.5863C120.199 24.9926 114.793 20.2759 108.187 20.2759Z" fill="white"/>
<path fill-rule="evenodd" clip-rule="evenodd" d="M142.456 35.5808C142.456 38.6998 139.9 40.7758 136.775 40.7758C133.651 40.7758 131.094 38.6998 131.094 35.5808V31.1306C131.094 28.0117 133.651 25.9357 136.775 25.9357C139.9 25.9357 142.456 28.0117 142.456 31.1306V35.5808ZM136.775 20.2762C134.71 20.2762 132.764 20.737 131.062 21.5717V13.9501C131.062 12.9821 130.276 12.1978 129.306 12.1978H124.764V35.153C124.764 41.7469 130.169 46.4354 136.775 46.4354C143.381 46.4354 148.787 41.7469 148.787 35.153V31.5866C148.787 24.9929 143.381 20.2762 136.775 20.2762Z" fill="#2483FF"/>
<path fill-rule="evenodd" clip-rule="evenodd" d="M268.037 35.6893C268.037 38.7757 265.507 40.8305 262.416 40.8305C259.322 40.8305 256.792 38.7757 256.792 35.6893V31.2844C256.792 28.198 259.322 26.1434 262.416 26.1434C265.507 26.1434 268.037 28.198 268.037 31.2844V35.6893ZM262.416 20.5421C260.373 20.5421 258.443 20.9977 256.761 21.8236V13.9557C256.761 12.9981 255.983 12.2217 255.022 12.2217H250.527V35.2658C250.527 41.7916 255.876 46.4316 262.416 46.4316C268.953 46.4316 274.302 41.7916 274.302 35.2658V31.7356C274.302 25.21 268.953 20.5421 262.416 20.5421Z" fill="white"/>
<path fill-rule="evenodd" clip-rule="evenodd" d="M318.504 46.3144V42.3673C318.504 41.4328 317.746 40.6763 316.81 40.6796C315.862 40.6829 314.674 40.6859 313.671 40.6859C311.112 40.6859 311.23 39.4091 311.23 36.0989V13.938C311.23 13.0056 310.474 12.25 309.541 12.25H304.929V36.8555C304.929 42.8143 306.469 46.3144 312.912 46.3144C315.403 46.3144 317.208 46.2439 318.504 46.3148V46.3144Z" fill="white"/>
<path fill-rule="evenodd" clip-rule="evenodd" d="M197.797 25.9905H185.61V29.3049C185.61 30.3013 186.419 31.109 187.417 31.109H193.206V34.0394C193.206 36.2014 192.665 37.7969 191.547 38.9215C190.175 40.3357 188.276 41.083 186.057 41.083C184.057 41.083 182.153 40.3918 180.965 39.2345C179.313 37.6189 178.957 35.8645 178.957 29.3522C178.957 22.877 179.313 21.1305 180.964 19.5165C182.183 18.3297 184.559 17.4317 186.529 17.4317C193.191 17.4317 195.429 19.7918 197.098 21.9406H197.316V17.1353C197.316 16.4249 196.977 15.761 196.421 15.3173C193.63 13.0877 190.848 12.2729 186.057 12.2729C182.187 12.2729 178.879 13.4865 176.224 15.8798C172.557 19.1841 172.558 22.9126 172.559 29.0893V29.6149C172.558 35.7916 172.557 39.5197 176.224 42.8241C178.842 45.1846 182.242 46.4317 186.057 46.4317C190.063 46.4317 193.59 45.0857 196.255 42.5398L196.256 42.5389C198.634 40.2589 199.605 35.8927 199.605 31.3525V27.7942C199.605 26.7982 198.795 25.9905 197.797 25.9905Z" fill="white"/>
<path fill-rule="evenodd" clip-rule="evenodd" d="M217.654 46.3144V42.3673C217.654 41.4328 216.896 40.6763 215.96 40.6796C215.013 40.6829 213.825 40.6859 212.821 40.6859C210.262 40.6859 210.381 39.4091 210.381 36.0989V13.938C210.381 13.0056 209.625 12.25 208.691 12.25H204.08V36.8555C204.08 42.8143 205.619 46.3144 212.063 46.3144C214.553 46.3144 216.359 46.2439 217.654 46.3148L217.654 46.3144Z" fill="white"/>
<path fill-rule="evenodd" clip-rule="evenodd" d="M239.711 35.6891C239.711 38.7755 237.181 40.8303 234.089 40.8303C230.998 40.8303 228.468 38.7755 228.468 35.6891V31.2845C228.468 28.1981 230.998 26.1432 234.089 26.1432C237.181 26.1432 239.711 28.1981 239.711 31.2845V35.6891ZM234.089 20.542C227.552 20.542 222.201 25.2101 222.201 31.7357V35.2656C222.201 41.7917 227.552 46.4315 234.089 46.4315C240.629 46.4315 245.978 41.7917 245.978 35.2656V31.7357C245.978 25.2101 240.629 20.542 234.089 20.542Z" fill="white"/>
<path fill-rule="evenodd" clip-rule="evenodd" d="M294.188 34.7124V41.2085C293.703 41.3023 293.166 41.3772 292.584 41.4304C291.158 41.5644 289.88 41.5888 288.396 41.454C287.815 41.4016 287.277 41.2537 286.801 41.0176C286.34 40.7885 285.962 40.4628 285.649 40.0212C285.352 39.6029 285.202 38.9848 285.202 38.1845C285.202 36.9376 285.645 36.0448 286.563 35.454C287.539 34.8247 289.016 34.5053 290.959 34.5053C291.481 34.5053 292.119 34.5352 292.873 34.5948C293.364 34.634 293.806 34.6733 294.188 34.7124ZM297.56 22.742C295.691 21.2528 292.96 20.498 289.44 20.498C288.134 20.498 286.757 20.5932 285.352 20.7804C284.227 20.9304 282.632 21.1452 281.527 21.3996C281.079 21.5028 280.996 21.8545 280.996 22.2756V25.6336C280.996 26.2321 281.002 26.7764 281.638 26.622C282.822 26.334 285.119 25.826 285.743 25.7233C286.729 25.5612 287.804 25.4796 288.936 25.4796C290.699 25.4796 292.043 25.7944 292.93 26.4132C293.764 26.9964 294.188 28.1065 294.188 29.7121V29.9065C293.874 29.8777 293.531 29.85 293.155 29.8249C292.451 29.7775 291.551 29.7535 290.452 29.7535C288.953 29.7535 287.5 29.9233 286.137 30.258C284.751 30.5988 283.506 31.1252 282.435 31.8241C281.345 32.5369 280.471 33.4412 279.838 34.5149C279.197 35.596 278.874 36.8623 278.874 38.2768C278.874 39.7135 279.151 40.9644 279.698 41.9935C280.248 43.0321 281.041 43.898 282.053 44.5663C283.047 45.2263 284.269 45.7087 285.68 46.0024C287.052 46.2871 288.608 46.4316 290.301 46.4316C291.534 46.4316 300.413 46.3068 300.413 42.0889C300.413 37.2012 300.413 29.8956 300.413 29.8956C300.413 26.6599 299.454 24.2532 297.56 22.742Z" fill="white"/>
<path fill-rule="evenodd" clip-rule="evenodd" d="M20.356 14.6015C20.356 7.78953 17.0313 1.93154 14.5026 0.0239348C14.4922 0.0179348 14.309 -0.0848651 14.3246 0.187535L14.321 0.195935C14.1111 13.3483 7.37919 16.9131 3.67824 21.7151C-4.86263 32.7967 3.08031 44.9463 11.1687 47.1919C15.6944 48.4484 10.1236 44.9688 9.40622 37.6191C8.53858 28.7359 20.356 21.9552 20.356 14.6015Z" fill="white"/>
<path fill-rule="evenodd" clip-rule="evenodd" d="M24.2356 19.0797C24.1838 19.0445 24.11 19.0205 24.0593 19.1045C23.9201 20.7601 22.2257 24.3017 20.0781 27.5537C12.794 38.5845 16.945 43.902 19.279 46.758C20.6343 48.416 19.279 46.758 22.6666 45.0636C22.9319 44.931 29.2762 41.3796 29.9632 33.2886C30.6283 25.4532 25.9134 20.5145 24.2356 19.0797Z" fill="#2483FF"/>
</svg>
