<svg width="33" height="31" viewBox="0 0 33 31" fill="none" xmlns="http://www.w3.org/2000/svg">
<path fill-rule="evenodd" clip-rule="evenodd" d="M0.508789 15.6671C0.508789 7.23551 7.67597 0.400391 16.5171 0.400391C25.3583 0.400391 32.5255 7.23551 32.5255 15.6671C32.5255 24.0986 25.3583 30.9337 16.5171 30.9337C7.67597 30.9337 0.508789 24.0986 0.508789 15.6671ZM16.5179 7.52483C14.1992 7.52483 13.9082 7.5345 12.9975 7.57403C12.0886 7.61372 11.4681 7.75095 10.9253 7.95231C10.3637 8.16027 9.88738 8.43847 9.41282 8.89122C8.9379 9.34379 8.64619 9.79807 8.42741 10.3334C8.21574 10.8513 8.07166 11.4431 8.03075 12.3096C7.99002 13.1781 7.97935 13.4558 7.97935 15.6671C7.97935 17.8785 7.98966 18.1551 8.03093 19.0236C8.07273 19.8905 8.21663 20.4821 8.42758 20.9998C8.64583 21.5354 8.93754 21.9896 9.41228 22.4422C9.88667 22.8951 10.363 23.174 10.9242 23.382C11.4674 23.5833 12.088 23.7206 12.9968 23.7603C13.9075 23.7998 14.1983 23.8094 16.5169 23.8094C18.8358 23.8094 19.1259 23.7998 20.0366 23.7603C20.9455 23.7206 21.5667 23.5833 22.1099 23.382C22.6712 23.174 23.1469 22.8951 23.6213 22.4422C24.0962 21.9896 24.3879 21.5354 24.6067 21C24.8166 20.4821 24.9606 19.8903 25.0033 19.0238C25.0442 18.1553 25.0549 17.8785 25.0549 15.6671C25.0549 13.4558 25.0442 13.1783 25.0033 12.3098C24.9606 11.443 24.8166 10.8513 24.6067 10.3336C24.3879 9.79807 24.0962 9.34379 23.6213 8.89122C23.1463 8.4383 22.6714 8.1601 22.1093 7.95231C21.5651 7.75095 20.9443 7.61372 20.0354 7.57403C19.1246 7.5345 18.8347 7.52483 16.5153 7.52483H16.5179Z" fill="white"/>
<path fill-rule="evenodd" clip-rule="evenodd" d="M15.752 8.99215C15.9793 8.99181 16.233 8.99215 16.5179 8.99215C18.7975 8.99215 19.0677 8.99995 19.9679 9.03896C20.8004 9.07526 21.2522 9.20792 21.5531 9.31937C21.9516 9.46694 22.2356 9.64336 22.5343 9.92834C22.8331 10.2133 23.0181 10.4847 23.1732 10.8647C23.2901 11.1514 23.4293 11.5822 23.4672 12.3761C23.5081 13.2345 23.517 13.4923 23.517 15.6653C23.517 17.8383 23.5081 18.0961 23.4672 18.9544C23.4292 19.7483 23.2901 20.1792 23.1732 20.4658C23.0184 20.8458 22.8331 21.1164 22.5343 21.4012C22.2355 21.6862 21.9517 21.8626 21.5531 22.0102C21.2525 22.1221 20.8004 22.2544 19.9679 22.2907C19.0679 22.3298 18.7975 22.3382 16.5179 22.3382C14.2381 22.3382 13.968 22.3298 13.0679 22.2907C12.2355 22.2541 11.7837 22.1214 11.4825 22.01C11.0841 21.8624 10.7995 21.686 10.5007 21.401C10.2019 21.116 10.0169 20.8453 9.86177 20.4652C9.74491 20.1785 9.60563 19.7476 9.56775 18.9538C9.52684 18.0954 9.51865 17.8376 9.51865 15.6632C9.51865 13.4889 9.52684 13.2324 9.56775 12.3741C9.60581 11.5802 9.74491 11.1493 9.86177 10.8623C10.0165 10.4824 10.2019 10.2109 10.5007 9.92597C10.7995 9.64099 11.0841 9.46457 11.4825 9.31665C11.7835 9.20469 12.2355 9.07238 13.0679 9.03591C13.8555 9.00198 14.1608 8.99181 15.752 8.99011V8.99215ZM21.0754 10.3441C20.5097 10.3441 20.0508 10.7812 20.0508 11.3208C20.0508 11.8603 20.5097 12.2979 21.0754 12.2979C21.641 12.2979 22.0999 11.8603 22.0999 11.3208C22.0999 10.7814 21.641 10.3441 21.0754 10.3441ZM16.5179 11.4857C14.0966 11.4857 12.1334 13.3579 12.1334 15.6671C12.1334 17.9763 14.0966 19.8477 16.5179 19.8477C18.9393 19.8477 20.9018 17.9763 20.9018 15.6671C20.9018 13.3579 18.9393 11.4857 16.5179 11.4857Z" fill="white"/>
<path fill-rule="evenodd" clip-rule="evenodd" d="M16.5179 12.953C18.0896 12.953 19.3639 14.1681 19.3639 15.6671C19.3639 17.166 18.0896 18.3812 16.5179 18.3812C14.9461 18.3812 13.672 17.166 13.672 15.6671C13.672 14.1681 14.9461 12.953 16.5179 12.953Z" fill="white"/>
</svg>
