<svg width="152" height="69" viewBox="0 0 152 69" fill="none" xmlns="http://www.w3.org/2000/svg">
<g filter="url(#filter0_d_753_96)">
<rect x="96" y="26" width="28" height="13" rx="6.5" fill="#38D1BC"/>
</g>
<path d="M103.746 31.8913C103.729 31.7195 103.656 31.5859 103.527 31.4908C103.398 31.3956 103.222 31.348 103.001 31.348C102.85 31.348 102.723 31.3693 102.619 31.4119C102.516 31.4531 102.436 31.5107 102.381 31.5845C102.327 31.6584 102.3 31.7422 102.3 31.8359C102.297 31.9141 102.313 31.9822 102.349 32.0405C102.386 32.0987 102.436 32.1491 102.5 32.1918C102.564 32.233 102.638 32.2692 102.722 32.3004C102.805 32.3303 102.895 32.3558 102.99 32.3771L103.382 32.4709C103.572 32.5135 103.747 32.5703 103.906 32.6413C104.065 32.7124 104.203 32.7997 104.32 32.9034C104.436 33.0071 104.526 33.1293 104.59 33.2699C104.656 33.4105 104.689 33.5717 104.69 33.7536C104.689 34.0206 104.621 34.2521 104.486 34.4482C104.352 34.6428 104.159 34.794 103.906 34.902C103.655 35.0085 103.352 35.0618 102.996 35.0618C102.644 35.0618 102.337 35.0078 102.076 34.8999C101.816 34.7919 101.613 34.6321 101.467 34.4205C101.322 34.2074 101.246 33.9439 101.239 33.63H102.131C102.141 33.7763 102.183 33.8984 102.257 33.9964C102.332 34.093 102.433 34.1662 102.558 34.2159C102.684 34.2642 102.827 34.2884 102.986 34.2884C103.142 34.2884 103.278 34.2656 103.393 34.2202C103.509 34.1747 103.599 34.1115 103.663 34.0305C103.727 33.9496 103.759 33.8565 103.759 33.7514C103.759 33.6534 103.73 33.571 103.672 33.5043C103.615 33.4375 103.531 33.3807 103.42 33.3338C103.311 33.2869 103.177 33.2443 103.018 33.206L102.543 33.0866C102.175 32.9972 101.884 32.8572 101.671 32.6669C101.458 32.4766 101.352 32.2202 101.354 31.8977C101.352 31.6335 101.423 31.4027 101.565 31.2053C101.708 31.0078 101.905 30.8537 102.155 30.7429C102.405 30.6321 102.689 30.5767 103.007 30.5767C103.331 30.5767 103.614 30.6321 103.855 30.7429C104.098 30.8537 104.287 31.0078 104.422 31.2053C104.557 31.4027 104.626 31.6314 104.631 31.8913H103.746ZM109.321 32.8182C109.321 33.294 109.231 33.6989 109.05 34.0327C108.871 34.3665 108.627 34.6214 108.317 34.7976C108.009 34.9723 107.662 35.0597 107.278 35.0597C106.89 35.0597 106.542 34.9716 106.233 34.7955C105.925 34.6193 105.682 34.3643 105.503 34.0305C105.324 33.6967 105.234 33.2926 105.234 32.8182C105.234 32.3423 105.324 31.9375 105.503 31.6037C105.682 31.2699 105.925 31.0156 106.233 30.8409C106.542 30.6648 106.89 30.5767 107.278 30.5767C107.662 30.5767 108.009 30.6648 108.317 30.8409C108.627 31.0156 108.871 31.2699 109.05 31.6037C109.231 31.9375 109.321 32.3423 109.321 32.8182ZM108.385 32.8182C108.385 32.5099 108.339 32.25 108.247 32.0384C108.156 31.8267 108.028 31.6662 107.861 31.5568C107.695 31.4474 107.501 31.3928 107.278 31.3928C107.055 31.3928 106.86 31.4474 106.694 31.5568C106.528 31.6662 106.398 31.8267 106.306 32.0384C106.215 32.25 106.17 32.5099 106.17 32.8182C106.17 33.1264 106.215 33.3864 106.306 33.598C106.398 33.8097 106.528 33.9702 106.694 34.0795C106.86 34.1889 107.055 34.2436 107.278 34.2436C107.501 34.2436 107.695 34.1889 107.861 34.0795C108.028 33.9702 108.156 33.8097 108.247 33.598C108.339 33.3864 108.385 33.1264 108.385 32.8182ZM114.014 32.8182C114.014 33.294 113.924 33.6989 113.744 34.0327C113.565 34.3665 113.32 34.6214 113.011 34.7976C112.702 34.9723 112.356 35.0597 111.971 35.0597C111.583 35.0597 111.235 34.9716 110.927 34.7955C110.619 34.6193 110.375 34.3643 110.196 34.0305C110.017 33.6967 109.928 33.2926 109.928 32.8182C109.928 32.3423 110.017 31.9375 110.196 31.6037C110.375 31.2699 110.619 31.0156 110.927 30.8409C111.235 30.6648 111.583 30.5767 111.971 30.5767C112.356 30.5767 112.702 30.6648 113.011 30.8409C113.32 31.0156 113.565 31.2699 113.744 31.6037C113.924 31.9375 114.014 32.3423 114.014 32.8182ZM113.079 32.8182C113.079 32.5099 113.033 32.25 112.94 32.0384C112.849 31.8267 112.721 31.6662 112.555 31.5568C112.388 31.4474 112.194 31.3928 111.971 31.3928C111.748 31.3928 111.553 31.4474 111.387 31.5568C111.221 31.6662 111.092 31.8267 110.999 32.0384C110.908 32.25 110.863 32.5099 110.863 32.8182C110.863 33.1264 110.908 33.3864 110.999 33.598C111.092 33.8097 111.221 33.9702 111.387 34.0795C111.553 34.1889 111.748 34.2436 111.971 34.2436C112.194 34.2436 112.388 34.1889 112.555 34.0795C112.721 33.9702 112.849 33.8097 112.94 33.598C113.033 33.3864 113.079 33.1264 113.079 32.8182ZM118.347 30.6364V35H117.551L115.652 32.2536H115.62V35H114.698V30.6364H115.507L117.391 33.3807H117.429V30.6364H118.347Z" fill="white"/>
<path d="M34.1378 39V25.9091H36.9055V31.6811H37.0781L41.7891 25.9091H45.1065L40.2486 31.7706L45.1641 39H41.853L38.267 33.6179L36.9055 35.2798V39H34.1378ZM46.5479 39V25.9091H51.7127C52.7013 25.9091 53.5451 26.0859 54.244 26.4396C54.9471 26.7891 55.4819 27.2855 55.8484 27.929C56.2191 28.5682 56.4045 29.3203 56.4045 30.1854C56.4045 31.0547 56.217 31.8026 55.842 32.429C55.467 33.0511 54.9237 33.5284 54.212 33.8608C53.5046 34.1932 52.6481 34.3594 51.6424 34.3594H48.1843V32.1349H51.195C51.7234 32.1349 52.1623 32.0625 52.5117 31.9176C52.8612 31.7727 53.1211 31.5554 53.2915 31.2656C53.4663 30.9759 53.5536 30.6158 53.5536 30.1854C53.5536 29.7507 53.4663 29.3842 53.2915 29.0859C53.1211 28.7876 52.859 28.5618 52.5053 28.4084C52.1559 28.2507 51.7148 28.1719 51.1822 28.1719H49.3157V39H46.5479ZM53.6175 33.0426L56.8711 39H53.8157L50.6325 33.0426H53.6175ZM58.3604 39V25.9091H63.5252C64.5138 25.9091 65.3576 26.0859 66.0565 26.4396C66.7596 26.7891 67.2944 27.2855 67.6609 27.929C68.0316 28.5682 68.217 29.3203 68.217 30.1854C68.217 31.0547 68.0295 31.8026 67.6545 32.429C67.2795 33.0511 66.7362 33.5284 66.0245 33.8608C65.3171 34.1932 64.4606 34.3594 63.4549 34.3594H59.9968V32.1349H63.0075C63.5359 32.1349 63.9748 32.0625 64.3242 31.9176C64.6737 31.7727 64.9336 31.5554 65.104 31.2656C65.2788 30.9759 65.3661 30.6158 65.3661 30.1854C65.3661 29.7507 65.2788 29.3842 65.104 29.0859C64.9336 28.7876 64.6715 28.5618 64.3178 28.4084C63.9684 28.2507 63.5273 28.1719 62.9947 28.1719H61.1282V39H58.3604ZM65.43 33.0426L68.6836 39H65.6282L62.445 33.0426H65.43ZM72.7681 25.9091L75.408 30.3707H75.5103L78.163 25.9091H81.2887L77.2937 32.4545L81.3782 39H78.195L75.5103 34.532H75.408L72.7234 39H69.5529L73.6502 32.4545L69.6296 25.9091H72.7681Z" fill="white"/>
<circle cx="12.5" cy="32.5" r="12.5" fill="#060B2D"/>
<path d="M17.4323 36.1976L15.9408 34.7133L14.7129 35.9406L16.1979 37.4249H14.3271V39.1663H19.1681V34.3213H17.4323V36.1976Z" fill="url(#paint0_linear_753_96)"/>
<path d="M14.3271 27.5744H16.1979L14.7129 29.0587L15.9408 30.286L17.4323 28.8017V30.678H19.1681V25.833H14.3271V27.5744Z" fill="url(#paint1_linear_753_96)"/>
<path d="M5.83496 30.6789H7.57073V28.8026L9.05578 30.287L10.2901 29.0597L8.80506 27.5753H10.6758V25.834H5.83496V30.6789Z" fill="url(#paint2_linear_753_96)"/>
<path d="M10.2901 35.9406L9.05579 34.7133L7.57073 36.1976V34.3213H5.83496V39.1663H10.6758V37.4249H8.80506L10.2901 35.9406Z" fill="url(#paint3_linear_753_96)"/>
<path d="M12.504 34.9515L10.7425 33.1973H8.28027L12.504 37.4125L16.7213 33.1973H14.2655L12.504 34.9515Z" fill="white"/>
<path d="M8.28027 31.8032H10.7425L12.504 30.0489L14.2655 31.8032H16.7213L12.504 27.5879L8.28027 31.8032Z" fill="white"/>
<path d="M13.7158 37.4248H11.2793V39.1662H13.7158V37.4248Z" fill="white"/>
<path d="M13.7158 25.833H11.2793V27.5744H13.7158V25.833Z" fill="white"/>
<defs>
<filter id="filter0_d_753_96" x="68" y="0" width="84" height="69" filterUnits="userSpaceOnUse" color-interpolation-filters="sRGB">
<feFlood flood-opacity="0" result="BackgroundImageFix"/>
<feColorMatrix in="SourceAlpha" type="matrix" values="0 0 0 0 0 0 0 0 0 0 0 0 0 0 0 0 0 0 127 0" result="hardAlpha"/>
<feOffset dy="2"/>
<feGaussianBlur stdDeviation="14"/>
<feColorMatrix type="matrix" values="0 0 0 0 0.215686 0 0 0 0 0.317647 0 0 0 0 1 0 0 0 0.16 0"/>
<feBlend mode="normal" in2="BackgroundImageFix" result="effect1_dropShadow_753_96"/>
<feBlend mode="normal" in="SourceGraphic" in2="effect1_dropShadow_753_96" result="shape"/>
</filter>
<linearGradient id="paint0_linear_753_96" x1="16.7474" y1="39.1651" x2="16.7474" y2="34.3232" gradientUnits="userSpaceOnUse">
<stop stop-color="#00A171"/>
<stop offset="0.6034" stop-color="#009B33"/>
<stop offset="1" stop-color="#009D32"/>
</linearGradient>
<linearGradient id="paint1_linear_753_96" x1="16.7474" y1="30.6758" x2="16.7474" y2="25.8338" gradientUnits="userSpaceOnUse">
<stop stop-color="#00A171"/>
<stop offset="0.6034" stop-color="#009B33"/>
<stop offset="1" stop-color="#009D32"/>
</linearGradient>
<linearGradient id="paint2_linear_753_96" x1="8.25422" y1="30.6768" x2="8.25422" y2="25.8348" gradientUnits="userSpaceOnUse">
<stop stop-color="#00A171"/>
<stop offset="0.6034" stop-color="#009B33"/>
<stop offset="1" stop-color="#009D32"/>
</linearGradient>
<linearGradient id="paint3_linear_753_96" x1="8.25422" y1="39.1651" x2="8.25422" y2="34.3232" gradientUnits="userSpaceOnUse">
<stop stop-color="#00A171"/>
<stop offset="0.6034" stop-color="#009B33"/>
<stop offset="1" stop-color="#009D32"/>
</linearGradient>
</defs>
</svg>
