<svg width="33" height="31" viewBox="0 0 33 31" fill="none" xmlns="http://www.w3.org/2000/svg">
<path fill-rule="evenodd" clip-rule="evenodd" d="M0.408203 15.6671C0.408203 7.23551 7.57538 0.400391 16.4165 0.400391C25.2577 0.400391 32.4249 7.23551 32.4249 15.6671C32.4249 24.0986 25.2577 30.9337 16.4165 30.9337C7.57538 30.9337 0.408203 24.0986 0.408203 15.6671ZM11.7213 13.045H8.09346V23.4401H11.7213V13.045ZM11.9598 9.82927C11.9363 8.81004 11.172 8.03372 9.93092 8.03372C8.68986 8.03372 7.8785 8.81004 7.8785 9.82927C7.8785 10.8274 8.66588 11.6261 9.88383 11.6261H9.90701C11.172 11.6261 11.9598 10.8274 11.9598 9.82927ZM24.8045 17.4798C24.8045 14.2869 23.0148 12.8008 20.6275 12.8008C18.7013 12.8008 17.839 13.8098 17.3575 14.5176V13.0452H13.7292C13.777 14.0206 13.7292 23.4403 13.7292 23.4403H17.3575V17.6348C17.3575 17.3241 17.381 17.0142 17.4769 16.7918C17.7391 16.1711 18.3361 15.5285 19.3384 15.5285C20.6517 15.5285 21.1767 16.4817 21.1767 17.8786V23.4401H24.8044L24.8045 17.4798Z" fill="white"/>
</svg>
