<svg width="188" height="75" viewBox="0 0 188 75" fill="none" xmlns="http://www.w3.org/2000/svg">
<path d="M71 45.4286V29H78.7913C81.3965 29 82.6991 30.2857 82.6991 32.8571V34.381C82.6991 34.9206 82.5383 35.381 82.2166 35.7619L81.3724 36.7619L82.3855 37.5952C82.9162 38.0238 83.1815 38.6587 83.1815 39.5V41.5714C83.1815 44.1429 81.8789 45.4286 79.2738 45.4286H71ZM73.9429 42.8095H79.1773C79.8849 42.8095 80.2387 42.4603 80.2387 41.7619V39.2619C80.2387 38.5635 79.8849 38.2143 79.1773 38.2143H73.9429V42.8095ZM73.9429 35.5952H78.6949C79.4024 35.5952 79.7562 35.246 79.7562 34.5476V32.6667C79.7562 31.9683 79.4024 31.619 78.6949 31.619H73.9429V35.5952Z" fill="white"/>
<path d="M86.7488 45.4286V29H89.6917V45.4286H86.7488Z" fill="white"/>
<path d="M92.4045 31.619V29H105.84V31.619H100.582V45.4286H97.6389V31.619H92.4045Z" fill="white"/>
<path d="M108.323 41.5714V32.8571C108.323 30.2857 109.626 29 112.231 29H117.803C120.408 29 121.711 30.2857 121.711 32.8571V41.5714C121.711 43.7619 120.762 45.0159 118.865 45.3333L120.433 48.381L120.071 49H117.538L115.705 45.4286H112.231C109.626 45.4286 108.323 44.1429 108.323 41.5714ZM111.266 41.7619C111.266 42.4603 111.62 42.8095 112.328 42.8095H117.707C118.414 42.8095 118.768 42.4603 118.768 41.7619V32.6667C118.768 31.9683 118.414 31.619 117.707 31.619H112.328C111.62 31.619 111.266 31.9683 111.266 32.6667V41.7619Z" fill="white"/>
<path d="M125.511 41.5714V29H128.454V41.7619C128.454 42.4603 128.808 42.8095 129.516 42.8095H134.412C135.12 42.8095 135.474 42.4603 135.474 41.7619V29H138.417V41.5714C138.417 44.1429 137.114 45.4286 134.509 45.4286H129.419C126.814 45.4286 125.511 44.1429 125.511 41.5714Z" fill="white"/>
<path d="M140.873 44.8571L146.011 29H150.57L155.708 44.8571L155.322 45.4286H152.886L151.728 41.7857H144.829L143.695 45.4286H141.259L140.873 44.8571ZM145.649 39.1667H150.932L148.52 31.619H148.061L145.649 39.1667Z" fill="white"/>
<path d="M158.308 45.4286V29H161.516L168.922 40.7381V29H171.84V45.4286H168.656L161.251 33.6905V45.4286H158.308Z" fill="white"/>
<path d="M174.564 31.619V29H188V31.619H182.741V45.4286H179.799V31.619H174.564Z" fill="white"/>
<g filter="url(#filter0_di_139_1611)">
<ellipse cx="37.5717" cy="37.5001" rx="21.5717" ry="21.5001" fill="url(#paint0_linear_139_1611)"/>
</g>
<path fill-rule="evenodd" clip-rule="evenodd" d="M44.627 45.6815C44.0514 46.4857 43.7059 47.4705 43.7059 48.5373C43.7059 49.3086 43.8869 50.039 44.1994 50.6873C42.2009 51.6966 39.9393 52.2629 37.5461 52.2629C29.3714 52.2629 22.751 45.6569 22.751 37.5C22.751 29.3431 29.3796 22.729 37.5543 22.729C45.7291 22.729 52.3495 29.3349 52.3495 37.4918C52.3495 39.8798 51.782 42.1365 50.7704 44.1306C50.203 43.8516 49.5697 43.6792 48.9036 43.6464C47.0556 43.6464 45.7383 44.3111 44.627 45.6815Z" fill="white"/>
<path d="M48.6165 52.2627C50.6786 52.2627 52.3503 50.5947 52.3503 48.5371C52.3503 46.4795 50.6786 44.8115 48.6165 44.8115C46.5545 44.8115 44.8828 46.4795 44.8828 48.5371C44.8828 50.5947 46.5545 52.2627 48.6165 52.2627Z" fill="white"/>
<path fill-rule="evenodd" clip-rule="evenodd" d="M39.733 29.0805C39.034 28.9 38.302 28.8015 37.5536 28.8015C36.7888 28.8015 36.0486 28.9 35.3496 29.0805C31.6076 30.0571 28.8525 33.4462 28.8525 37.4836C28.8525 42.0626 32.3971 45.8128 36.8957 46.1411C37.1095 46.1575 37.3316 46.1657 37.5536 46.1657C37.7674 46.1657 37.973 46.1575 38.1786 46.1411C42.6937 45.821 46.2547 42.0626 46.2547 37.4754C46.2547 33.4462 43.4832 30.0488 39.733 29.0805ZM38.3925 31.0746C34.3791 31.0746 31.1224 34.3242 31.1224 38.3288C31.1224 40.1178 31.7721 41.759 32.8494 43.0227C31.2786 41.6933 30.2835 39.7075 30.2835 37.4918C30.2835 33.4872 33.5403 30.2376 37.5536 30.2376C39.7741 30.2376 41.7643 31.2305 43.0966 32.7979C41.8301 31.7229 40.1853 31.0746 38.3925 31.0746ZM39.733 29.0805C39.034 28.9 38.302 28.8015 37.5536 28.8015C36.7888 28.8015 36.0486 28.9 35.3496 29.0805C31.6076 30.0571 28.8525 33.4462 28.8525 37.4836C28.8525 42.0626 32.3971 45.8128 36.8957 46.1411C37.1095 46.1575 37.3316 46.1657 37.5536 46.1657C37.7674 46.1657 37.973 46.1575 38.1786 46.1411C42.6937 45.821 46.2547 42.0626 46.2547 37.4754C46.2547 33.4462 43.4832 30.0488 39.733 29.0805ZM38.3925 31.0746C34.3791 31.0746 31.1224 34.3242 31.1224 38.3288C31.1224 40.1178 31.7721 41.759 32.8494 43.0227C31.2786 41.6933 30.2835 39.7075 30.2835 37.4918C30.2835 33.4872 33.5403 30.2376 37.5536 30.2376C39.7741 30.2376 41.7643 31.2305 43.0966 32.7979C41.8301 31.7229 40.1853 31.0746 38.3925 31.0746ZM39.733 29.0805C39.034 28.9 38.302 28.8015 37.5536 28.8015C36.7888 28.8015 36.0486 28.9 35.3496 29.0805C31.6076 30.0571 28.8525 33.4462 28.8525 37.4836C28.8525 42.0626 32.3971 45.8128 36.8957 46.1411C37.1095 46.1575 37.3316 46.1657 37.5536 46.1657C37.7674 46.1657 37.973 46.1575 38.1786 46.1411C42.6937 45.821 46.2547 42.0626 46.2547 37.4754C46.2547 33.4462 43.4832 30.0488 39.733 29.0805ZM38.3925 31.0746C34.3791 31.0746 31.1224 34.3242 31.1224 38.3288C31.1224 40.1178 31.7721 41.759 32.8494 43.0227C31.2786 41.6933 30.2835 39.7075 30.2835 37.4918C30.2835 33.4872 33.5403 30.2376 37.5536 30.2376C39.7741 30.2376 41.7643 31.2305 43.0966 32.7979C41.8301 31.7229 40.1853 31.0746 38.3925 31.0746ZM39.733 29.0805C39.034 28.9 38.302 28.8015 37.5536 28.8015C36.7888 28.8015 36.0486 28.9 35.3496 29.0805C31.6076 30.0571 28.8525 33.4462 28.8525 37.4836C28.8525 42.0626 32.3971 45.8128 36.8957 46.1411C37.1095 46.1575 37.3316 46.1657 37.5536 46.1657C37.7674 46.1657 37.973 46.1575 38.1786 46.1411C42.6937 45.821 46.2547 42.0626 46.2547 37.4754C46.2547 33.4462 43.4832 30.0488 39.733 29.0805ZM38.3925 31.0746C34.3791 31.0746 31.1224 34.3242 31.1224 38.3288C31.1224 40.1178 31.7721 41.759 32.8494 43.0227C31.2786 41.6933 30.2835 39.7075 30.2835 37.4918C30.2835 33.4872 33.5403 30.2376 37.5536 30.2376C39.7741 30.2376 41.7643 31.2305 43.0966 32.7979C41.8301 31.7229 40.1853 31.0746 38.3925 31.0746ZM39.733 29.0805C39.034 28.9 38.302 28.8015 37.5536 28.8015C36.7888 28.8015 36.0486 28.9 35.3496 29.0805C31.6076 30.0571 28.8525 33.4462 28.8525 37.4836C28.8525 42.0626 32.3971 45.8128 36.8957 46.1411C37.1095 46.1575 37.3316 46.1657 37.5536 46.1657C37.7674 46.1657 37.973 46.1575 38.1786 46.1411C42.6937 45.821 46.2547 42.0626 46.2547 37.4754C46.2547 33.4462 43.4832 30.0488 39.733 29.0805ZM38.3925 31.0746C34.3791 31.0746 31.1224 34.3242 31.1224 38.3288C31.1224 40.1178 31.7721 41.759 32.8494 43.0227C31.2786 41.6933 30.2835 39.7075 30.2835 37.4918C30.2835 33.4872 33.5403 30.2376 37.5536 30.2376C39.7741 30.2376 41.7643 31.2305 43.0966 32.7979C41.8301 31.7229 40.1853 31.0746 38.3925 31.0746ZM39.733 29.0805C39.034 28.9 38.302 28.8015 37.5536 28.8015C36.7888 28.8015 36.0486 28.9 35.3496 29.0805C31.6076 30.0571 28.8525 33.4462 28.8525 37.4836C28.8525 42.0626 32.3971 45.8128 36.8957 46.1411C37.1095 46.1575 37.3316 46.1657 37.5536 46.1657C37.7674 46.1657 37.973 46.1575 38.1786 46.1411C42.6937 45.821 46.2547 42.0626 46.2547 37.4754C46.2547 33.4462 43.4832 30.0488 39.733 29.0805ZM38.3925 31.0746C34.3791 31.0746 31.1224 34.3242 31.1224 38.3288C31.1224 40.1178 31.7721 41.759 32.8494 43.0227C31.2786 41.6933 30.2835 39.7075 30.2835 37.4918C30.2835 33.4872 33.5403 30.2376 37.5536 30.2376C39.7741 30.2376 41.7643 31.2305 43.0966 32.7979C41.8301 31.7229 40.1853 31.0746 38.3925 31.0746ZM39.733 29.0805C39.034 28.9 38.302 28.8015 37.5536 28.8015C36.7888 28.8015 36.0486 28.9 35.3496 29.0805C31.6076 30.0571 28.8525 33.4462 28.8525 37.4836C28.8525 42.0626 32.3971 45.8128 36.8957 46.1411C37.1095 46.1575 37.3316 46.1657 37.5536 46.1657C37.7674 46.1657 37.973 46.1575 38.1786 46.1411C42.6937 45.821 46.2547 42.0626 46.2547 37.4754C46.2547 33.4462 43.4832 30.0488 39.733 29.0805ZM38.3925 31.0746C34.3791 31.0746 31.1224 34.3242 31.1224 38.3288C31.1224 40.1178 31.7721 41.759 32.8494 43.0227C31.2786 41.6933 30.2835 39.7075 30.2835 37.4918C30.2835 33.4872 33.5403 30.2376 37.5536 30.2376C39.7741 30.2376 41.7643 31.2305 43.0966 32.7979C41.8301 31.7229 40.1853 31.0746 38.3925 31.0746ZM39.733 29.0805C39.034 28.9 38.302 28.8015 37.5536 28.8015C36.7888 28.8015 36.0486 28.9 35.3496 29.0805C31.6076 30.0571 28.8525 33.4462 28.8525 37.4836C28.8525 42.0626 32.3971 45.8128 36.8957 46.1411C37.1095 46.1575 37.3316 46.1657 37.5536 46.1657C37.7674 46.1657 37.973 46.1575 38.1786 46.1411C42.6937 45.821 46.2547 42.0626 46.2547 37.4754C46.2547 33.4462 43.4832 30.0488 39.733 29.0805ZM38.3925 31.0746C34.3791 31.0746 31.1224 34.3242 31.1224 38.3288C31.1224 40.1178 31.7721 41.759 32.8494 43.0227C31.2786 41.6933 30.2835 39.7075 30.2835 37.4918C30.2835 33.4872 33.5403 30.2376 37.5536 30.2376C39.7741 30.2376 41.7643 31.2305 43.0966 32.7979C41.8301 31.7229 40.1853 31.0746 38.3925 31.0746ZM39.733 29.0805C39.034 28.9 38.302 28.8015 37.5536 28.8015C36.7888 28.8015 36.0486 28.9 35.3496 29.0805C31.6076 30.0571 28.8525 33.4462 28.8525 37.4836C28.8525 42.0626 32.3971 45.8128 36.8957 46.1411C37.1095 46.1575 37.3316 46.1657 37.5536 46.1657C37.7674 46.1657 37.973 46.1575 38.1786 46.1411C42.6937 45.821 46.2547 42.0626 46.2547 37.4754C46.2547 33.4462 43.4832 30.0488 39.733 29.0805ZM38.3925 31.0746C34.3791 31.0746 31.1224 34.3242 31.1224 38.3288C31.1224 40.1178 31.7721 41.759 32.8494 43.0227C31.2786 41.6933 30.2835 39.7075 30.2835 37.4918C30.2835 33.4872 33.5403 30.2376 37.5536 30.2376C39.7741 30.2376 41.7643 31.2305 43.0966 32.7979C41.8301 31.7229 40.1853 31.0746 38.3925 31.0746ZM39.733 29.0805C39.034 28.9 38.302 28.8015 37.5536 28.8015C36.7888 28.8015 36.0486 28.9 35.3496 29.0805C31.6076 30.0571 28.8525 33.4462 28.8525 37.4836C28.8525 42.0626 32.3971 45.8128 36.8957 46.1411C37.1095 46.1575 37.3316 46.1657 37.5536 46.1657C37.7674 46.1657 37.973 46.1575 38.1786 46.1411C42.6937 45.821 46.2547 42.0626 46.2547 37.4754C46.2547 33.4462 43.4832 30.0488 39.733 29.0805ZM38.3925 31.0746C34.3791 31.0746 31.1224 34.3242 31.1224 38.3288C31.1224 40.1178 31.7721 41.759 32.8494 43.0227C31.2786 41.6933 30.2835 39.7075 30.2835 37.4918C30.2835 33.4872 33.5403 30.2376 37.5536 30.2376C39.7741 30.2376 41.7643 31.2305 43.0966 32.7979C41.8301 31.7229 40.1853 31.0746 38.3925 31.0746ZM39.733 29.0805C39.034 28.9 38.302 28.8015 37.5536 28.8015C36.7888 28.8015 36.0486 28.9 35.3496 29.0805C31.6076 30.0571 28.8525 33.4462 28.8525 37.4836C28.8525 42.0626 32.3971 45.8128 36.8957 46.1411C37.1095 46.1575 37.3316 46.1657 37.5536 46.1657C37.7674 46.1657 37.973 46.1575 38.1786 46.1411C42.6937 45.821 46.2547 42.0626 46.2547 37.4754C46.2547 33.4462 43.4832 30.0488 39.733 29.0805ZM38.3925 31.0746C34.3791 31.0746 31.1224 34.3242 31.1224 38.3288C31.1224 40.1178 31.7721 41.759 32.8494 43.0227C31.2786 41.6933 30.2835 39.7075 30.2835 37.4918C30.2835 33.4872 33.5403 30.2376 37.5536 30.2376C39.7741 30.2376 41.7643 31.2305 43.0966 32.7979C41.8301 31.7229 40.1853 31.0746 38.3925 31.0746ZM39.733 29.0805C39.034 28.9 38.302 28.8015 37.5536 28.8015C36.7888 28.8015 36.0486 28.9 35.3496 29.0805C31.6076 30.0571 28.8525 33.4462 28.8525 37.4836C28.8525 42.0626 32.3971 45.8128 36.8957 46.1411C37.1095 46.1575 37.3316 46.1657 37.5536 46.1657C37.7674 46.1657 37.973 46.1575 38.1786 46.1411C42.6937 45.821 46.2547 42.0626 46.2547 37.4754C46.2547 33.4462 43.4832 30.0488 39.733 29.0805ZM38.3925 31.0746C34.3791 31.0746 31.1224 34.3242 31.1224 38.3288C31.1224 40.1178 31.7721 41.759 32.8494 43.0227C31.2786 41.6933 30.2835 39.7075 30.2835 37.4918C30.2835 33.4872 33.5403 30.2376 37.5536 30.2376C39.7741 30.2376 41.7643 31.2305 43.0966 32.7979C41.8301 31.7229 40.1853 31.0746 38.3925 31.0746ZM39.733 29.0805C39.034 28.9 38.302 28.8015 37.5536 28.8015C36.7888 28.8015 36.0486 28.9 35.3496 29.0805C31.6076 30.0571 28.8525 33.4462 28.8525 37.4836C28.8525 42.0626 32.3971 45.8128 36.8957 46.1411C37.1095 46.1575 37.3316 46.1657 37.5536 46.1657C37.7674 46.1657 37.973 46.1575 38.1786 46.1411C42.6937 45.821 46.2547 42.0626 46.2547 37.4754C46.2547 33.4462 43.4832 30.0488 39.733 29.0805ZM38.3925 31.0746C34.3791 31.0746 31.1224 34.3242 31.1224 38.3288C31.1224 40.1178 31.7721 41.759 32.8494 43.0227C31.2786 41.6933 30.2835 39.7075 30.2835 37.4918C30.2835 33.4872 33.5403 30.2376 37.5536 30.2376C39.7741 30.2376 41.7643 31.2305 43.0966 32.7979C41.8301 31.7229 40.1853 31.0746 38.3925 31.0746ZM39.733 29.0805C39.034 28.9 38.302 28.8015 37.5536 28.8015C36.7888 28.8015 36.0486 28.9 35.3496 29.0805C31.6076 30.0571 28.8525 33.4462 28.8525 37.4836C28.8525 42.0626 32.3971 45.8128 36.8957 46.1411C37.1095 46.1575 37.3316 46.1657 37.5536 46.1657C37.7674 46.1657 37.973 46.1575 38.1786 46.1411C42.6937 45.821 46.2547 42.0626 46.2547 37.4754C46.2547 33.4462 43.4832 30.0488 39.733 29.0805ZM38.3925 31.0746C34.3791 31.0746 31.1224 34.3242 31.1224 38.3288C31.1224 40.1178 31.7721 41.759 32.8494 43.0227C31.2786 41.6933 30.2835 39.7075 30.2835 37.4918C30.2835 33.4872 33.5403 30.2376 37.5536 30.2376C39.7741 30.2376 41.7643 31.2305 43.0966 32.7979C41.8301 31.7229 40.1853 31.0746 38.3925 31.0746ZM39.733 29.0805C39.034 28.9 38.302 28.8015 37.5536 28.8015C36.7888 28.8015 36.0486 28.9 35.3496 29.0805C31.6076 30.0571 28.8525 33.4462 28.8525 37.4836C28.8525 42.0626 32.3971 45.8128 36.8957 46.1411C37.1095 46.1575 37.3316 46.1657 37.5536 46.1657C37.7674 46.1657 37.973 46.1575 38.1786 46.1411C42.6937 45.821 46.2547 42.0626 46.2547 37.4754C46.2547 33.4462 43.4832 30.0488 39.733 29.0805ZM38.3925 31.0746C34.3791 31.0746 31.1224 34.3242 31.1224 38.3288C31.1224 40.1178 31.7721 41.759 32.8494 43.0227C31.2786 41.6933 30.2835 39.7075 30.2835 37.4918C30.2835 33.4872 33.5403 30.2376 37.5536 30.2376C39.7741 30.2376 41.7643 31.2305 43.0966 32.7979C41.8301 31.7229 40.1853 31.0746 38.3925 31.0746ZM39.733 29.0805C39.034 28.9 38.302 28.8015 37.5536 28.8015C36.7888 28.8015 36.0486 28.9 35.3496 29.0805C31.6076 30.0571 28.8525 33.4462 28.8525 37.4836C28.8525 42.0626 32.3971 45.8128 36.8957 46.1411C37.1095 46.1575 37.3316 46.1657 37.5536 46.1657C37.7674 46.1657 37.973 46.1575 38.1786 46.1411C42.6937 45.821 46.2547 42.0626 46.2547 37.4754C46.2547 33.4462 43.4832 30.0488 39.733 29.0805ZM38.3925 31.0746C34.3791 31.0746 31.1224 34.3242 31.1224 38.3288C31.1224 40.1178 31.7721 41.759 32.8494 43.0227C31.2786 41.6933 30.2835 39.7075 30.2835 37.4918C30.2835 33.4872 33.5403 30.2376 37.5536 30.2376C39.7741 30.2376 41.7643 31.2305 43.0966 32.7979C41.8301 31.7229 40.1853 31.0746 38.3925 31.0746ZM39.733 29.0805C39.034 28.9 38.302 28.8015 37.5536 28.8015C36.7888 28.8015 36.0486 28.9 35.3496 29.0805C31.6076 30.0571 28.8525 33.4462 28.8525 37.4836C28.8525 42.0626 32.3971 45.8128 36.8957 46.1411C37.1095 46.1575 37.3316 46.1657 37.5536 46.1657C37.7674 46.1657 37.973 46.1575 38.1786 46.1411C42.6937 45.821 46.2547 42.0626 46.2547 37.4754C46.2547 33.4462 43.4832 30.0488 39.733 29.0805ZM38.3925 31.0746C34.3791 31.0746 31.1224 34.3242 31.1224 38.3288C31.1224 40.1178 31.7721 41.759 32.8494 43.0227C31.2786 41.6933 30.2835 39.7075 30.2835 37.4918C30.2835 33.4872 33.5403 30.2376 37.5536 30.2376C39.7741 30.2376 41.7643 31.2305 43.0966 32.7979C41.8301 31.7229 40.1853 31.0746 38.3925 31.0746ZM39.733 29.0805C39.034 28.9 38.302 28.8015 37.5536 28.8015C36.7888 28.8015 36.0486 28.9 35.3496 29.0805C31.6076 30.0571 28.8525 33.4462 28.8525 37.4836C28.8525 42.0626 32.3971 45.8128 36.8957 46.1411C37.1095 46.1575 37.3316 46.1657 37.5536 46.1657C37.7674 46.1657 37.973 46.1575 38.1786 46.1411C42.6937 45.821 46.2547 42.0626 46.2547 37.4754C46.2547 33.4462 43.4832 30.0488 39.733 29.0805ZM38.3925 31.0746C34.3791 31.0746 31.1224 34.3242 31.1224 38.3288C31.1224 40.1178 31.7721 41.759 32.8494 43.0227C31.2786 41.6933 30.2835 39.7075 30.2835 37.4918C30.2835 33.4872 33.5403 30.2376 37.5536 30.2376C39.7741 30.2376 41.7643 31.2305 43.0966 32.7979C41.8301 31.7229 40.1853 31.0746 38.3925 31.0746ZM39.733 29.0805C39.034 28.9 38.302 28.8015 37.5536 28.8015C36.7888 28.8015 36.0486 28.9 35.3496 29.0805C31.6076 30.0571 28.8525 33.4462 28.8525 37.4836C28.8525 42.0626 32.3971 45.8128 36.8957 46.1411C37.1095 46.1575 37.3316 46.1657 37.5536 46.1657C37.7674 46.1657 37.973 46.1575 38.1786 46.1411C42.6937 45.821 46.2547 42.0626 46.2547 37.4754C46.2547 33.4462 43.4832 30.0488 39.733 29.0805ZM38.3925 31.0746C34.3791 31.0746 31.1224 34.3242 31.1224 38.3288C31.1224 40.1178 31.7721 41.759 32.8494 43.0227C31.2786 41.6933 30.2835 39.7075 30.2835 37.4918C30.2835 33.4872 33.5403 30.2376 37.5536 30.2376C39.7741 30.2376 41.7643 31.2305 43.0966 32.7979C41.8301 31.7229 40.1853 31.0746 38.3925 31.0746ZM39.733 29.0805C39.034 28.9 38.302 28.8015 37.5536 28.8015C36.7888 28.8015 36.0486 28.9 35.3496 29.0805C31.6076 30.0571 28.8525 33.4462 28.8525 37.4836C28.8525 42.0626 32.3971 45.8128 36.8957 46.1411C37.1095 46.1575 37.3316 46.1657 37.5536 46.1657C37.7674 46.1657 37.973 46.1575 38.1786 46.1411C42.6937 45.821 46.2547 42.0626 46.2547 37.4754C46.2547 33.4462 43.4832 30.0488 39.733 29.0805ZM38.3925 31.0746C34.3791 31.0746 31.1224 34.3242 31.1224 38.3288C31.1224 40.1178 31.7721 41.759 32.8494 43.0227C31.2786 41.6933 30.2835 39.7075 30.2835 37.4918C30.2835 33.4872 33.5403 30.2376 37.5536 30.2376C39.7741 30.2376 41.7643 31.2305 43.0966 32.7979C41.8301 31.7229 40.1853 31.0746 38.3925 31.0746ZM39.733 29.0805C39.034 28.9 38.302 28.8015 37.5536 28.8015C36.7888 28.8015 36.0486 28.9 35.3496 29.0805C31.6076 30.0571 28.8525 33.4462 28.8525 37.4836C28.8525 42.0626 32.3971 45.8128 36.8957 46.1411C37.1095 46.1575 37.3316 46.1657 37.5536 46.1657C37.7674 46.1657 37.973 46.1575 38.1786 46.1411C42.6937 45.821 46.2547 42.0626 46.2547 37.4754C46.2547 33.4462 43.4832 30.0488 39.733 29.0805ZM38.3925 31.0746C34.3791 31.0746 31.1224 34.3242 31.1224 38.3288C31.1224 40.1178 31.7721 41.759 32.8494 43.0227C31.2786 41.6933 30.2835 39.7075 30.2835 37.4918C30.2835 33.4872 33.5403 30.2376 37.5536 30.2376C39.7741 30.2376 41.7643 31.2305 43.0966 32.7979C41.8301 31.7229 40.1853 31.0746 38.3925 31.0746ZM39.733 29.0805C39.034 28.9 38.302 28.8015 37.5536 28.8015C36.7888 28.8015 36.0486 28.9 35.3496 29.0805C31.6076 30.0571 28.8525 33.4462 28.8525 37.4836C28.8525 42.0626 32.3971 45.8128 36.8957 46.1411C37.1095 46.1575 37.3316 46.1657 37.5536 46.1657C37.7674 46.1657 37.973 46.1575 38.1786 46.1411C42.6937 45.821 46.2547 42.0626 46.2547 37.4754C46.2547 33.4462 43.4832 30.0488 39.733 29.0805ZM38.3925 31.0746C34.3791 31.0746 31.1224 34.3242 31.1224 38.3288C31.1224 40.1178 31.7721 41.759 32.8494 43.0227C31.2786 41.6933 30.2835 39.7075 30.2835 37.4918C30.2835 33.4872 33.5403 30.2376 37.5536 30.2376C39.7741 30.2376 41.7643 31.2305 43.0966 32.7979C41.8301 31.7229 40.1853 31.0746 38.3925 31.0746ZM39.733 29.0805C39.034 28.9 38.302 28.8015 37.5536 28.8015C36.7888 28.8015 36.0486 28.9 35.3496 29.0805C31.6076 30.0571 28.8525 33.4462 28.8525 37.4836C28.8525 42.0626 32.3971 45.8128 36.8957 46.1411C37.1095 46.1575 37.3316 46.1657 37.5536 46.1657C37.7674 46.1657 37.973 46.1575 38.1786 46.1411C42.6937 45.821 46.2547 42.0626 46.2547 37.4754C46.2547 33.4462 43.4832 30.0488 39.733 29.0805ZM38.3925 31.0746C34.3791 31.0746 31.1224 34.3242 31.1224 38.3288C31.1224 40.1178 31.7721 41.759 32.8494 43.0227C31.2786 41.6933 30.2835 39.7075 30.2835 37.4918C30.2835 33.4872 33.5403 30.2376 37.5536 30.2376C39.7741 30.2376 41.7643 31.2305 43.0966 32.7979C41.8301 31.7229 40.1853 31.0746 38.3925 31.0746ZM39.733 29.0805C39.034 28.9 38.302 28.8015 37.5536 28.8015C36.7888 28.8015 36.0486 28.9 35.3496 29.0805C31.6076 30.0571 28.8525 33.4462 28.8525 37.4836C28.8525 42.0626 32.3971 45.8128 36.8957 46.1411C37.1095 46.1575 37.3316 46.1657 37.5536 46.1657C37.7674 46.1657 37.973 46.1575 38.1786 46.1411C42.6937 45.821 46.2547 42.0626 46.2547 37.4754C46.2547 33.4462 43.4832 30.0488 39.733 29.0805ZM38.3925 31.0746C34.3791 31.0746 31.1224 34.3242 31.1224 38.3288C31.1224 40.1178 31.7721 41.759 32.8494 43.0227C31.2786 41.6933 30.2835 39.7075 30.2835 37.4918C30.2835 33.4872 33.5403 30.2376 37.5536 30.2376C39.7741 30.2376 41.7643 31.2305 43.0966 32.7979C41.8301 31.7229 40.1853 31.0746 38.3925 31.0746ZM39.733 29.0805C39.034 28.9 38.302 28.8015 37.5536 28.8015C36.7888 28.8015 36.0486 28.9 35.3496 29.0805C31.6076 30.0571 28.8525 33.4462 28.8525 37.4836C28.8525 42.0626 32.3971 45.8128 36.8957 46.1411C37.1095 46.1575 37.3316 46.1657 37.5536 46.1657C37.7674 46.1657 37.973 46.1575 38.1786 46.1411C42.6937 45.821 46.2547 42.0626 46.2547 37.4754C46.2547 33.4462 43.4832 30.0488 39.733 29.0805ZM38.3925 31.0746C34.3791 31.0746 31.1224 34.3242 31.1224 38.3288C31.1224 40.1178 31.7721 41.759 32.8494 43.0227C31.2786 41.6933 30.2835 39.7075 30.2835 37.4918C30.2835 33.4872 33.5403 30.2376 37.5536 30.2376C39.7741 30.2376 41.7643 31.2305 43.0966 32.7979C41.8301 31.7229 40.1853 31.0746 38.3925 31.0746ZM39.733 29.0805C39.034 28.9 38.302 28.8015 37.5536 28.8015C36.7888 28.8015 36.0486 28.9 35.3496 29.0805C31.6076 30.0571 28.8525 33.4462 28.8525 37.4836C28.8525 42.0626 32.3971 45.8128 36.8957 46.1411C37.1095 46.1575 37.3316 46.1657 37.5536 46.1657C37.7674 46.1657 37.973 46.1575 38.1786 46.1411C42.6937 45.821 46.2547 42.0626 46.2547 37.4754C46.2547 33.4462 43.4832 30.0488 39.733 29.0805ZM38.3925 31.0746C34.3791 31.0746 31.1224 34.3242 31.1224 38.3288C31.1224 40.1178 31.7721 41.759 32.8494 43.0227C31.2786 41.6933 30.2835 39.7075 30.2835 37.4918C30.2835 33.4872 33.5403 30.2376 37.5536 30.2376C39.7741 30.2376 41.7643 31.2305 43.0966 32.7979C41.8301 31.7229 40.1853 31.0746 38.3925 31.0746ZM39.733 29.0805C39.034 28.9 38.302 28.8015 37.5536 28.8015C36.7888 28.8015 36.0486 28.9 35.3496 29.0805C31.6076 30.0571 28.8525 33.4462 28.8525 37.4836C28.8525 42.0626 32.3971 45.8128 36.8957 46.1411C37.1095 46.1575 37.3316 46.1657 37.5536 46.1657C37.7674 46.1657 37.973 46.1575 38.1786 46.1411C42.6937 45.821 46.2547 42.0626 46.2547 37.4754C46.2547 33.4462 43.4832 30.0488 39.733 29.0805ZM38.3925 31.0746C34.3791 31.0746 31.1224 34.3242 31.1224 38.3288C31.1224 40.1178 31.7721 41.759 32.8494 43.0227C31.2786 41.6933 30.2835 39.7075 30.2835 37.4918C30.2835 33.4872 33.5403 30.2376 37.5536 30.2376C39.7741 30.2376 41.7643 31.2305 43.0966 32.7979C41.8301 31.7229 40.1853 31.0746 38.3925 31.0746Z" fill="#252733"/>
<defs>
<filter id="filter0_di_139_1611" x="0" y="0" width="75.1436" height="75" filterUnits="userSpaceOnUse" color-interpolation-filters="sRGB">
<feFlood flood-opacity="0" result="BackgroundImageFix"/>
<feColorMatrix in="SourceAlpha" type="matrix" values="0 0 0 0 0 0 0 0 0 0 0 0 0 0 0 0 0 0 127 0" result="hardAlpha"/>
<feMorphology radius="4" operator="dilate" in="SourceAlpha" result="effect1_dropShadow_139_1611"/>
<feOffset/>
<feGaussianBlur stdDeviation="6"/>
<feComposite in2="hardAlpha" operator="out"/>
<feColorMatrix type="matrix" values="0 0 0 0 0.303125 0 0 0 0 0.808333 0 0 0 0 0.663086 0 0 0 0.69 0"/>
<feBlend mode="normal" in2="BackgroundImageFix" result="effect1_dropShadow_139_1611"/>
<feBlend mode="normal" in="SourceGraphic" in2="effect1_dropShadow_139_1611" result="shape"/>
<feColorMatrix in="SourceAlpha" type="matrix" values="0 0 0 0 0 0 0 0 0 0 0 0 0 0 0 0 0 0 127 0" result="hardAlpha"/>
<feOffset/>
<feGaussianBlur stdDeviation="6"/>
<feComposite in2="hardAlpha" operator="arithmetic" k2="-1" k3="1"/>
<feColorMatrix type="matrix" values="0 0 0 0 0.219608 0 0 0 0 0.819608 0 0 0 0 0.737255 0 0 0 1 0"/>
<feBlend mode="normal" in2="shape" result="effect2_innerShadow_139_1611"/>
</filter>
<linearGradient id="paint0_linear_139_1611" x1="37.5717" y1="16" x2="37.5717" y2="59.0001" gradientUnits="userSpaceOnUse">
<stop stop-color="#00A171"/>
<stop offset="1" stop-color="#007CC3"/>
</linearGradient>
</defs>
</svg>
