<svg width="33" height="31" viewBox="0 0 33 31" fill="none" xmlns="http://www.w3.org/2000/svg">
<path fill-rule="evenodd" clip-rule="evenodd" d="M32.5919 15.6671C32.5919 24.0986 25.4247 30.9337 16.5835 30.9337C7.74239 30.9337 0.575195 24.0986 0.575195 15.6671C0.575195 7.23553 7.74239 0.400391 16.5835 0.400391C25.4247 0.400391 32.5919 7.23553 32.5919 15.6671ZM11.2951 14.2686C9.69148 14.9363 8.04382 15.6224 6.53713 16.4139C5.7504 16.9632 6.79602 17.3518 7.77701 17.7163C7.93296 17.7742 8.08724 17.8316 8.23232 17.8888C8.35305 17.9242 8.47578 17.9615 8.60017 17.9993C9.69121 18.3308 10.9077 18.7004 11.9669 18.1444C13.7069 17.1912 15.3489 16.0892 16.9897 14.988C17.5272 14.6272 18.0646 14.2665 18.6053 13.9112C18.6307 13.8957 18.6592 13.8781 18.6905 13.8588C19.1511 13.574 20.187 12.9336 19.8038 13.816C18.8977 14.761 17.9272 15.5975 16.9514 16.4387C16.2937 17.0055 15.6336 17.5744 14.9893 18.18C14.4281 18.6149 13.8454 19.4893 14.4738 20.0983C15.9211 21.0645 17.3911 22.0074 18.8602 22.9497C19.3382 23.2563 19.8163 23.5629 20.2933 23.8703C21.1019 24.4859 22.3655 23.9879 22.5433 23.0259C22.6223 22.5834 22.7017 22.1409 22.7811 21.6983C23.2197 19.2527 23.6585 16.8061 24.0461 14.3525C24.0988 13.9676 24.1585 13.5828 24.2182 13.1977C24.3631 12.2645 24.5081 11.3301 24.5534 10.3919C24.4366 9.4555 23.2461 9.6614 22.5837 9.87196C19.1784 11.1077 15.8072 12.435 12.4493 13.7857C12.0689 13.9464 11.6833 14.1069 11.2951 14.2686Z" fill="white"/>
</svg>
