<svg width="33" height="31" viewBox="0 0 33 31" fill="none" xmlns="http://www.w3.org/2000/svg">
<path fill-rule="evenodd" clip-rule="evenodd" d="M16.5503 30.9337C7.70917 30.9337 0.541992 24.0986 0.541992 15.6671C0.541992 7.23551 7.70917 0.400391 16.5503 0.400391C25.3915 0.400391 32.5587 7.23551 32.5587 15.6671C32.5587 24.0986 25.3915 30.9337 16.5503 30.9337ZM17.078 24.1607C22.3263 24.1587 26.5949 20.0869 26.597 15.0828C26.598 12.6572 25.6088 10.3764 23.8116 8.66055C22.0144 6.94462 19.6244 5.99922 17.0779 5.99817C11.8311 5.99817 7.56083 10.0704 7.55875 15.0756C7.55803 16.6756 7.99636 18.2373 8.82938 19.614L7.47894 24.3182L12.5251 23.0558C13.9155 23.779 15.4809 24.1602 17.0741 24.1607H17.078Z" fill="white"/>
<path fill-rule="evenodd" clip-rule="evenodd" d="M12.759 21.4121L9.76453 22.1612L10.5638 19.3769L10.3757 19.0914C9.58369 17.8901 9.1654 16.5016 9.16602 15.0759C9.16775 10.9158 12.717 7.53125 17.0812 7.53125C19.1944 7.53195 21.1809 8.31777 22.6747 9.74399C24.1685 11.1702 24.9906 13.0659 24.9898 15.082C24.9881 19.2425 21.4388 22.6274 17.0781 22.6274H17.0749C15.6551 22.6268 14.2627 22.2631 13.0479 21.5756L12.759 21.4121ZM21.8737 17.2413C21.8143 17.1467 21.6557 17.0899 21.4179 16.9763C21.18 16.8628 20.0107 16.3141 19.7926 16.2383C19.5746 16.1627 19.416 16.1249 19.2574 16.3519C19.0989 16.5789 18.6431 17.0899 18.5043 17.2413C18.3656 17.3926 18.2268 17.4116 17.9891 17.2981C17.7512 17.1845 16.9848 16.945 16.0763 16.1722C15.3692 15.5707 14.8919 14.828 14.7532 14.6009C14.6144 14.3738 14.7384 14.2511 14.8574 14.138C14.9644 14.0363 15.0953 13.873 15.2142 13.7405C15.3331 13.6081 15.3728 13.5135 15.4521 13.3622C15.5313 13.2107 15.4917 13.0783 15.4322 12.9648C15.3728 12.8512 14.8971 11.7347 14.6989 11.2805C14.5058 10.8382 14.3097 10.8981 14.1638 10.8912C14.0252 10.8845 13.8664 10.8831 13.7079 10.8831C13.5493 10.8831 13.2916 10.9399 13.0736 11.167C12.8556 11.3941 12.2412 11.9429 12.2412 13.0593C12.2412 14.1758 13.0934 15.2544 13.2124 15.4057C13.3313 15.5572 14.8895 17.8482 17.2755 18.8308C17.843 19.0645 18.286 19.2041 18.6315 19.3086C19.2012 19.4813 19.7198 19.4569 20.1295 19.3985C20.5865 19.3334 21.5368 18.8498 21.735 18.32C21.9331 17.79 21.9331 17.3359 21.8737 17.2413Z" fill="white"/>
</svg>
