<svg width="33" height="31" viewBox="0 0 33 31" fill="none" xmlns="http://www.w3.org/2000/svg">
<path fill-rule="evenodd" clip-rule="evenodd" d="M0.441406 15.6671C0.441406 7.23551 7.60858 0.400391 16.4497 0.400391C25.2909 0.400391 32.4581 7.23551 32.4581 15.6671C32.4581 24.0986 25.2909 30.9337 16.4497 30.9337C7.60858 30.9337 0.441406 24.0986 0.441406 15.6671ZM24.6307 11.897C24.4343 11.1775 23.8557 10.611 23.121 10.4187C21.7894 10.0693 16.4497 10.0693 16.4497 10.0693C16.4497 10.0693 11.11 10.0693 9.77844 10.4187C9.0437 10.611 8.46508 11.1775 8.26871 11.897C7.91196 13.2009 7.91196 15.9215 7.91196 15.9215C7.91196 15.9215 7.91196 18.642 8.26871 19.946C8.46508 20.6655 9.0437 21.232 9.77844 21.4244C11.11 21.7737 16.4497 21.7737 16.4497 21.7737C16.4497 21.7737 21.7894 21.7737 23.121 21.4244C23.8557 21.232 24.4343 20.6655 24.6307 19.946C24.9875 18.642 24.9875 15.9215 24.9875 15.9215C24.9875 15.9215 24.9875 13.2009 24.6307 11.897Z" fill="white"/>
<path fill-rule="evenodd" clip-rule="evenodd" d="M14.8486 18.7207V13.6318L19.1175 16.1764L14.8486 18.7207Z" fill="white"/>
</svg>
